<svg xmlns="http://www.w3.org/2000/svg" width="1200" height="410" viewBox="0 0 1200 410" role="img" aria-labelledby="title desc">
  <title id="title">Mohamed Amine — Full-Stack Builder</title>
  <desc id="desc">A dark graphite developer brand banner with cyan, blue, and violet accents.</desc>
  <defs>
    <linearGradient id="bg" x1="0" x2="1" y1="0" y2="1"><stop stop-color="#0c111a"/><stop offset=".56" stop-color="#0b1725"/><stop offset="1" stop-color="#141226"/></linearGradient>
    <linearGradient id="accent" x1="0" x2="1"><stop stop-color="#6ff6f0"/><stop offset=".57" stop-color="#4ba8ff"/><stop offset="1" stop-color="#aa8bff"/></linearGradient>
    <linearGradient id="line" x1="0" x2="1"><stop stop-color="#3ddbd6" stop-opacity=".65"/><stop offset="1" stop-color="#8c75eb" stop-opacity=".18"/></linearGradient>
    <pattern id="grid" width="36" height="36" patternUnits="userSpaceOnUse"><path d="M36 0H0V36" fill="none" stroke="#33475e" stroke-opacity=".22" stroke-width="1"/></pattern>
    <radialGradient id="glow"><stop stop-color="#0b88bb" stop-opacity=".22"/><stop offset="1" stop-color="#0b88bb" stop-opacity="0"/></radialGradient>
  </defs>
  <rect width="1200" height="410" rx="20" fill="url(#bg)"/>
  <rect width="1200" height="410" rx="20" fill="url(#grid)"/>
  <ellipse cx="1015" cy="175" rx="310" ry="240" fill="url(#glow)"/>
  <rect x="20" y="20" width="1160" height="370" rx="13" fill="none" stroke="#648aa2" stroke-opacity=".3"/>
  <path d="M48 70H182M48 70V114M1018 340H1152M1152 296V340" stroke="url(#line)" stroke-width="2"/>
  <rect x="54" y="48" width="11" height="11" rx="2" fill="#64e7e7"/>
  <text x="77" y="59" fill="#a5c9d7" font-family="Arial, Helvetica, sans-serif" font-weight="700" font-size="17" letter-spacing="3">AMINE-IBRA  /  PRODUCT ENGINEERING</text>
  <text x="54" y="171" fill="#f2f7fc" font-family="Arial, Helvetica, sans-serif" font-weight="800" font-size="78" letter-spacing="1">MOHAMED</text>
  <text x="54" y="252" fill="url(#accent)" font-family="Arial, Helvetica, sans-serif" font-weight="800" font-size="78" letter-spacing="2">AMINE</text>
  <rect x="55" y="279" width="367" height="42" rx="8" fill="#142938" stroke="#3d7a8c" stroke-opacity=".7"/>
  <text x="73" y="307" fill="#b9f7fa" font-family="Consolas, Menlo, monospace" font-weight="700" font-size="23" letter-spacing="1.4">FULL-STACK BUILDER</text>
  <text x="55" y="363" fill="#aabaca" font-family="Arial, Helvetica, sans-serif" font-size="19" letter-spacing=".4">SaaS products  /  AI-assisted experiences  /  modern web systems</text>
  <circle cx="980" cy="170" r="105" fill="#142e40" fill-opacity=".45" stroke="#328da6" stroke-opacity=".36"/>
  <circle cx="980" cy="170" r="75" fill="none" stroke="#68d5e4" stroke-opacity=".25"/>
  <circle cx="980" cy="170" r="45" fill="none" stroke="#b59fff" stroke-opacity=".38"/>
  <path d="M864 170H1096M980 54V286" stroke="#63c9df" stroke-opacity=".25"/>
  <circle cx="980" cy="170" r="8" fill="#81eff0"/>
  <circle cx="1055" cy="95" r="4" fill="#ac91fb"/>
  <circle cx="912" cy="217" r="4" fill="#5faaf1"/>
  <text x="859" y="325" fill="#819cac" font-family="Consolas, Menlo, monospace" font-size="17" letter-spacing="2">DESIGN  •  BUILD  •  SHIP</text>
</svg>
